<svg width="44" height="47" viewBox="0 0 44 47" fill="none" xmlns="http://www.w3.org/2000/svg">
    <g filter="url(#filter0_d_686_6303)">
        <path fill-rule="evenodd" clip-rule="evenodd"
            d="M24.4366 39.0115C24.595 38.7714 24.8503 38.6125 25.1342 38.5658C33.5107 37.1872 39.9006 29.9129 39.9006 21.1461C39.9006 11.3956 31.9962 3.49121 22.2457 3.49121C12.4952 3.49121 4.59082 11.3956 4.59082 21.1461C4.59082 29.9129 10.9807 37.1872 19.3571 38.5658C19.641 38.6125 19.8963 38.7714 20.0548 39.0115L21.8283 41.6994C22.026 41.9989 22.4654 41.9989 22.663 41.6994L24.4366 39.0115Z"
            fill="#1CD7AE" />
    </g>
    <path
        d="M21.3627 14.0842C19.4207 14.0842 17.8318 15.6732 17.8318 17.6152C17.8318 19.5572 19.4207 21.1462 21.3627 21.1462C23.3048 21.1462 24.8937 19.5572 24.8937 17.6152C24.8937 15.6732 23.3048 14.0842 21.3627 14.0842ZM21.3627 22.9117C17.4787 22.9117 14.3008 24.5006 14.3008 26.4426V28.2081H22.6868C22.422 27.5019 22.2455 26.7957 22.2455 26.0013C22.2455 24.942 22.5103 23.971 23.0399 22.9999C22.5103 22.9999 21.9806 22.9117 21.3627 22.9117Z"
        fill="white" />
    <path d="M30.1899 26.4426H26.659V28.2081L24.0107 25.5599L26.659 22.9116V24.6771H30.1899V26.4426Z" fill="white" />
    <defs>
        <filter id="filter0_d_686_6303" x="0.59082" y="0.491211" width="43.3096" height="46.4329"
            filterUnits="userSpaceOnUse" color-interpolation-filters="sRGB">
            <feFlood flood-opacity="0" result="BackgroundImageFix" />
            <feColorMatrix in="SourceAlpha" type="matrix" values="0 0 0 0 0 0 0 0 0 0 0 0 0 0 0 0 0 0 127 0"
                result="hardAlpha" />
            <feOffset dy="1" />
            <feGaussianBlur stdDeviation="2" />
            <feComposite in2="hardAlpha" operator="out" />
            <feColorMatrix type="matrix" values="0 0 0 0 0 0 0 0 0 0 0 0 0 0 0 0 0 0 0.12 0" />
            <feBlend mode="normal" in2="BackgroundImageFix" result="effect1_dropShadow_686_6303" />
            <feBlend mode="normal" in="SourceGraphic" in2="effect1_dropShadow_686_6303" result="shape" />
        </filter>
    </defs>
</svg>