<svg width="44" height="47" viewBox="0 0 44 47" fill="none" xmlns="http://www.w3.org/2000/svg">
    <g filter="url(#filter0_d_686_6279)">
        <path fill-rule="evenodd" clip-rule="evenodd"
            d="M24.293 38.9229C24.4515 38.6827 24.7068 38.5239 24.9907 38.4772C33.3671 37.0986 39.757 29.8242 39.757 21.0575C39.757 11.3069 31.8526 3.40259 22.1021 3.40259C12.3516 3.40259 4.44727 11.3069 4.44727 21.0575C4.44727 29.8242 10.8371 37.0986 19.2136 38.4772C19.4975 38.5239 19.7528 38.6827 19.9112 38.9229L21.6848 41.6108C21.8824 41.9103 22.3219 41.9103 22.5195 41.6108L24.293 38.9229Z"
            fill="white" />
    </g>
    <path
        d="M18.5124 15.9657L15.9628 18.5296C13.5578 20.9203 13.5578 24.8059 15.9628 27.1966C18.3679 29.5872 22.2391 29.6016 24.6298 27.1966L28.9632 22.8631C29.6855 22.1625 29.6855 21.0141 28.9632 20.3063C28.891 20.2197 28.7971 20.1402 28.696 20.0752L28.9632 19.7936C29.6855 19.093 29.6855 17.9446 28.9632 17.2368C28.8621 17.1213 28.7249 17.0201 28.6021 16.9407C28.8766 16.2762 28.7538 15.4818 28.2121 14.9401C27.5838 14.3117 26.6087 14.2467 25.9009 14.7378C25.754 14.5115 25.5584 14.3207 25.3285 14.1793C25.0986 14.0379 24.8402 13.9495 24.5718 13.9204C24.3035 13.8914 24.0321 13.9224 23.7773 14.0114C23.5224 14.1003 23.2906 14.2448 23.0986 14.4345L21.2858 16.2473C21.2208 16.1462 21.1413 16.0523 21.0547 15.9657C20.7138 15.6356 20.258 15.4511 19.7835 15.4511C19.3091 15.4511 18.8532 15.6356 18.5124 15.9657ZM19.5307 16.9912C19.6752 16.8468 19.8991 16.8468 20.0435 16.9912C20.188 17.1357 20.188 17.3596 20.0435 17.504L17.7468 19.8008C18.1525 20.207 18.3805 20.7577 18.3805 21.3319C18.3805 21.9061 18.1525 22.4568 17.7468 22.8631L18.7651 23.8815C19.2619 23.3848 19.603 22.754 19.7467 22.0664C19.8903 21.3788 19.8303 20.6643 19.5741 20.0102L24.1242 15.4601C24.2687 15.3156 24.4925 15.3156 24.6298 15.4601C24.767 15.6045 24.7814 15.8284 24.6298 15.9729L21.3147 19.2952L22.333 20.3136L26.6737 15.9729C26.8182 15.8284 27.0421 15.8284 27.1865 15.9729C27.331 16.1173 27.331 16.3412 27.1865 16.4857L22.8458 20.8264L23.8642 21.8447L27.4393 18.2696C27.5838 18.1252 27.8076 18.1252 27.9521 18.2696C28.0965 18.4141 28.0965 18.638 27.9521 18.7824L23.8642 22.8631L24.8826 23.8887L27.4393 21.3319C27.5838 21.1875 27.8076 21.1875 27.9521 21.3319C28.0965 21.4764 28.0965 21.7003 27.9521 21.8447L23.6186 26.1854C21.7841 28.0199 18.8157 28.0199 16.9812 26.1854C15.1467 24.3509 15.1467 21.3825 16.9812 19.548L19.5307 16.9912ZM30.0466 24.6687C30.0466 27.0593 28.1038 29.0022 25.7131 29.0022V27.9188C27.5188 27.9188 28.9632 26.4743 28.9632 24.6687H30.0466ZM14.1572 17.4463C14.1572 15.0556 16.1001 13.1128 18.4907 13.1128V14.1962C16.6851 14.1962 15.2406 15.6406 15.2406 17.4463H14.1572Z"
        fill="#1B1B1B" />
    <defs>
        <filter id="filter0_d_686_6279" x="0.447266" y="0.402588" width="43.3096" height="46.4329"
            filterUnits="userSpaceOnUse" color-interpolation-filters="sRGB">
            <feFlood flood-opacity="0" result="BackgroundImageFix" />
            <feColorMatrix in="SourceAlpha" type="matrix" values="0 0 0 0 0 0 0 0 0 0 0 0 0 0 0 0 0 0 127 0"
                result="hardAlpha" />
            <feOffset dy="1" />
            <feGaussianBlur stdDeviation="2" />
            <feComposite in2="hardAlpha" operator="out" />
            <feColorMatrix type="matrix" values="0 0 0 0 0 0 0 0 0 0 0 0 0 0 0 0 0 0 0.12 0" />
            <feBlend mode="normal" in2="BackgroundImageFix" result="effect1_dropShadow_686_6279" />
            <feBlend mode="normal" in="SourceGraphic" in2="effect1_dropShadow_686_6279" result="shape" />
        </filter>
    </defs>
</svg>