<svg width="145" height="145" viewBox="0 0 145 145" fill="none" xmlns="http://www.w3.org/2000/svg">
<g filter="url(#filter0_d_0_1)">
<g clip-path="url(#clip0_0_1)">
<rect x="36" y="32" width="73" height="73" rx="14.9318" fill="#EBFFFA"/>
<path d="M75.542 47.2083C75.542 43.8486 78.2656 41.125 81.6253 41.125C84.9851 41.125 87.7087 43.8486 87.7087 47.2083V106.521C87.7087 109.881 84.9851 112.604 81.6253 112.604C78.2656 112.604 75.542 109.881 75.542 106.521V47.2083Z" fill="url(#paint0_linear_0_1)"/>
<rect x="51.0654" y="80.0505" width="23.4303" height="11.1401" transform="rotate(-62.2375 51.0654 80.0505)" fill="url(#paint1_linear_0_1)"/>
<path d="M46.3916 61.2611C46.3916 58.0409 49.0021 55.4304 52.2223 55.4304H67.7707C70.9909 55.4304 73.6014 58.0409 73.6014 61.2611C73.6014 64.4813 70.9909 67.0918 67.7707 67.0918H52.2223C49.0021 67.0918 46.3916 64.4813 46.3916 61.2611Z" fill="#A4EFDF"/>
<path d="M75.2568 61.2611C75.2568 58.0409 77.8673 55.4304 81.0875 55.4304H94.0446C97.2647 55.4304 99.8752 58.0409 99.8752 61.2611C99.8752 64.4813 97.2647 67.0918 94.0445 67.0918H81.0875C77.8673 67.0918 75.2568 64.4813 75.2568 61.2611Z" fill="#A4EFDF"/>
<g filter="url(#filter1_d_0_1)">
<circle cx="81.2787" cy="61.3788" r="7.67713" fill="white"/>
</g>
<circle cx="81.2798" cy="61.3787" r="5.04156" fill="#005C48"/>
<path d="M53.1601 88.8345C52.6071 89.0615 51.9834 88.7332 51.8575 88.1489L49.4503 76.9737C49.2787 76.1775 50.1147 75.5431 50.8354 75.9225L63.8178 82.7565C64.5385 83.1359 64.4887 84.1841 63.7352 84.4934L53.1601 88.8345Z" fill="#A4EFDF"/>
</g>
</g>
<path d="M34.4 137.4C37.54 137 39.9 135.72 39.9 130.8V127.46C39.9 127.18 39.72 126.96 39.4 126.96H34.84C33.64 126.96 33.16 126.04 33.16 125.22C33.16 124.42 33.62 123.5 34.84 123.5H40.72C42.98 123.5 43.86 124.56 43.86 126.42V130.82C43.86 137.9 40.02 140.46 34.84 140.72C33.86 140.76 32.92 140.18 32.92 139C32.92 138.16 33.4 137.52 34.4 137.4ZM46.28 141.52V124.68C46.28 123.4 47.22 122.74 48.26 122.74C49.28 122.74 50.24 123.42 50.24 124.68V129.74H50.9C52.12 129.74 52.48 130.68 52.48 131.48C52.48 132.3 52.1 133.22 50.9 133.22H50.24V141.52H46.28ZM56.5 141.52C54.24 141.52 53.64 140.78 53.64 138.62V137.2C53.64 135.84 54.6 135.26 55.72 135.26C56.84 135.26 57.74 135.86 57.74 137.2V137.92C57.74 138.36 57.84 138.42 58.28 138.42H69.06C70.28 138.42 70.74 139.16 70.74 139.96C70.74 140.78 70.26 141.52 69.06 141.52H56.5ZM68.94 129.94H56.32C54.06 129.94 53.46 129.2 53.46 127.04V124.86C53.46 123.5 54.4 122.92 55.52 122.92C56.64 122.92 57.54 123.52 57.54 124.86V126.34C57.54 126.78 57.64 126.84 58.08 126.84H68.94C70.16 126.84 70.62 127.58 70.62 128.38C70.62 129.2 70.14 129.94 68.94 129.94ZM54.32 131.14H69.68C70.9 131.14 71.36 132 71.36 132.8C71.36 133.62 70.88 134.44 69.68 134.44H54.32C53.12 134.44 52.64 133.62 52.64 132.8C52.64 132 53.1 131.14 54.32 131.14ZM90.92 141.52H76.84C74.42 141.52 73.98 140.8 73.98 138.48V136.86C73.98 134.54 74.42 133.82 76.84 133.82H88.06C90.48 133.82 90.92 134.54 90.92 136.86V141.52ZM74.9 129.92C77.92 130.04 80.38 129.26 80.38 126.98V126.88C80.38 126.56 80.22 126.44 79.92 126.44H75.12C73.96 126.44 73.48 125.66 73.48 124.88C73.48 124.1 73.94 123.32 75.12 123.32H81.4C83.58 123.32 84.32 124.22 84.32 126.02V126.88C84.32 131.7 79.74 133.62 74.68 133.16C73.78 133.08 73.06 132.36 73.14 131.3C73.22 130.36 73.94 129.88 74.9 129.92ZM86.78 133.08V124.72C86.78 123.42 87.74 122.74 88.8 122.74C89.84 122.74 90.82 123.44 90.82 124.72V133.08H86.78ZM77.92 138.16C77.92 138.64 78 138.7 78.4 138.7H86.98V137.14C86.98 136.7 86.88 136.62 86.48 136.62H78.4C78 136.62 77.92 136.7 77.92 137.14V138.16ZM103.22 141.52V133.42H101.82V136.16C101.82 139.36 100.32 141.02 97.48 141.02C94.64 141.02 93.06 139.36 93.06 136.16V128.06C93.06 124.86 94.64 123.2 97.48 123.2C100.32 123.2 101.82 124.86 101.82 128.06V130.2H103.22V124.44C103.22 123.32 104.02 122.74 104.94 122.74C105.84 122.74 106.66 123.34 106.66 124.44V141.52H103.22ZM107.6 141.52V124.44C107.6 123.32 108.44 122.74 109.36 122.74C110.26 122.74 111.14 123.34 111.14 124.44V141.52H107.6ZM97.48 137.96C97.88 137.96 98.32 137.74 98.32 136.84V127.38C98.32 126.5 97.88 126.26 97.48 126.26C97.08 126.26 96.64 126.5 96.64 127.38V136.84C96.64 137.74 97.08 137.96 97.48 137.96Z" fill="white"/>
<defs>
<filter id="filter0_d_0_1" x="0" y="0" width="145" height="145" filterUnits="userSpaceOnUse" color-interpolation-filters="sRGB">
<feFlood flood-opacity="0" result="BackgroundImageFix"/>
<feColorMatrix in="SourceAlpha" type="matrix" values="0 0 0 0 0 0 0 0 0 0 0 0 0 0 0 0 0 0 127 0" result="hardAlpha"/>
<feMorphology radius="2" operator="dilate" in="SourceAlpha" result="effect1_dropShadow_0_1"/>
<feOffset dy="4"/>
<feGaussianBlur stdDeviation="17"/>
<feComposite in2="hardAlpha" operator="out"/>
<feColorMatrix type="matrix" values="0 0 0 0 0.0963721 0 0 0 0 0.74 0 0 0 0 0.598884 0 0 0 1 0"/>
<feBlend mode="darken" in2="BackgroundImageFix" result="effect1_dropShadow_0_1"/>
<feBlend mode="normal" in="SourceGraphic" in2="effect1_dropShadow_0_1" result="shape"/>
</filter>
<filter id="filter1_d_0_1" x="68.4187" y="49.8145" width="25.7201" height="25.7199" filterUnits="userSpaceOnUse" color-interpolation-filters="sRGB">
<feFlood flood-opacity="0" result="BackgroundImageFix"/>
<feColorMatrix in="SourceAlpha" type="matrix" values="0 0 0 0 0 0 0 0 0 0 0 0 0 0 0 0 0 0 127 0" result="hardAlpha"/>
<feOffset dy="1.2957"/>
<feGaussianBlur stdDeviation="2.59141"/>
<feComposite in2="hardAlpha" operator="out"/>
<feColorMatrix type="matrix" values="0 0 0 0 0 0 0 0 0 0 0 0 0 0 0 0 0 0 0.12 0"/>
<feBlend mode="normal" in2="BackgroundImageFix" result="effect1_dropShadow_0_1"/>
<feBlend mode="normal" in="SourceGraphic" in2="effect1_dropShadow_0_1" result="shape"/>
</filter>
<linearGradient id="paint0_linear_0_1" x1="81.6253" y1="65.696" x2="81.6253" y2="112.604" gradientUnits="userSpaceOnUse">
<stop stop-color="#5DD9BE"/>
<stop offset="1" stop-color="#A4EFDF"/>
</linearGradient>
<linearGradient id="paint1_linear_0_1" x1="70.3847" y1="83.7916" x2="52.7121" y2="84.5012" gradientUnits="userSpaceOnUse">
<stop stop-color="#5DD9BE"/>
<stop offset="1" stop-color="#A4EFDF"/>
</linearGradient>
<clipPath id="clip0_0_1">
<rect x="36" y="32" width="73" height="73" rx="14.9318" fill="white"/>
</clipPath>
</defs>
</svg>